<svg xmlns="http://www.w3.org/2000/svg" xmlns:xlink="http://www.w3.org/1999/xlink" width="500" zoomAndPan="magnify" viewBox="0 0 375 374.999991" height="500" preserveAspectRatio="xMidYMid meet" version="1.0"><defs><g/><clipPath id="7ce6860342"><path d="M 13.152344 152.242188 L 67.199219 152.242188 L 67.199219 218.246094 L 13.152344 218.246094 Z M 13.152344 152.242188 " clip-rule="nonzero"/></clipPath></defs><g clip-path="url(#7ce6860342)"><path fill="#d82a27" d="M 13.152344 218.449219 L 20.875 210.574219 L 20.875 172.191406 L 13.152344 172.191406 Z M 51.757812 167.5625 L 44.035156 175.4375 L 44.035156 213.820312 L 51.757812 213.820312 Z M 67.199219 152.285156 L 59.480469 160.160156 L 59.480469 198.542969 L 67.199219 198.542969 Z M 28.59375 203.171875 L 36.316406 195.292969 L 36.316406 156.914062 L 28.59375 156.914062 Z M 28.59375 203.171875 " fill-opacity="1" fill-rule="evenodd"/></g><g fill="#ffffff" fill-opacity="1"><g transform="translate(74.277478, 186.075256)"><g><path d="M 17.15625 -9.703125 C 17.15625 -6.503906 16.316406 -4.085938 14.640625 -2.453125 C 12.960938 -0.816406 10.503906 0 7.265625 0 L 2.703125 0 L 2.703125 -19.046875 L 7.84375 -19.046875 C 10.882812 -19.046875 13.195312 -18.25 14.78125 -16.65625 C 16.363281 -15.070312 17.15625 -12.753906 17.15625 -9.703125 Z M 15.71875 -9.65625 C 15.71875 -12.382812 15.023438 -14.4375 13.640625 -15.8125 C 12.253906 -17.1875 10.21875 -17.875 7.53125 -17.875 L 4.03125 -17.875 L 4.03125 -1.171875 L 7.1875 -1.171875 C 12.875 -1.171875 15.71875 -4 15.71875 -9.65625 Z M 15.71875 -9.65625 "/></g></g></g><g fill="#ffffff" fill-opacity="1"><g transform="translate(95.973315, 186.075256)"><g><path d="M 2.703125 0 L 2.703125 -19.046875 L 4.03125 -19.046875 L 4.03125 0 Z M 2.703125 0 "/></g></g></g><g fill="#ffffff" fill-opacity="1"><g transform="translate(105.552206, 186.075256)"><g><path d="M 10.1875 -9.609375 L 17.21875 -9.609375 L 17.21875 -0.90625 C 15.375 -0.125 13.300781 0.265625 11 0.265625 C 7.988281 0.265625 5.679688 -0.582031 4.078125 -2.28125 C 2.484375 -3.976562 1.6875 -6.382812 1.6875 -9.5 C 1.6875 -11.4375 2.082031 -13.15625 2.875 -14.65625 C 3.664062 -16.15625 4.800781 -17.3125 6.28125 -18.125 C 7.769531 -18.9375 9.472656 -19.34375 11.390625 -19.34375 C 13.460938 -19.34375 15.328125 -18.960938 16.984375 -18.203125 L 16.4375 -17 C 14.789062 -17.769531 13.082031 -18.15625 11.3125 -18.15625 C 8.800781 -18.15625 6.804688 -17.378906 5.328125 -15.828125 C 3.859375 -14.273438 3.125 -12.179688 3.125 -9.546875 C 3.125 -6.679688 3.820312 -4.523438 5.21875 -3.078125 C 6.625 -1.628906 8.679688 -0.90625 11.390625 -0.90625 C 13.140625 -0.90625 14.628906 -1.15625 15.859375 -1.65625 L 15.859375 -8.359375 L 10.1875 -8.359375 Z M 10.1875 -9.609375 "/></g></g></g><g fill="#ffffff" fill-opacity="1"><g transform="translate(127.704066, 186.075256)"><g><path d="M 2.703125 0 L 2.703125 -19.046875 L 4.03125 -19.046875 L 4.03125 0 Z M 2.703125 0 "/></g></g></g><g fill="#ffffff" fill-opacity="1"><g transform="translate(137.282955, 186.075256)"><g><path d="M 7.65625 0 L 6.3125 0 L 6.3125 -17.796875 L 0.125 -17.796875 L 0.125 -19.046875 L 13.859375 -19.046875 L 13.859375 -17.796875 L 7.65625 -17.796875 Z M 7.65625 0 "/></g></g></g><g fill="#ffffff" fill-opacity="1"><g transform="translate(154.11899, 186.075256)"><g><path d="M 11.875 -6.71875 L 4.125 -6.71875 L 1.46875 0 L 0 0 L 7.65625 -19.125 L 8.515625 -19.125 L 16.015625 0 L 14.515625 0 Z M 4.609375 -7.921875 L 11.421875 -7.921875 L 8.828125 -14.796875 C 8.617188 -15.328125 8.359375 -16.070312 8.046875 -17.03125 C 7.816406 -16.195312 7.5625 -15.441406 7.28125 -14.765625 Z M 4.609375 -7.921875 "/></g></g></g><g fill="#ffffff" fill-opacity="1"><g transform="translate(172.987545, 186.075256)"><g><path d="M 2.703125 0 L 2.703125 -19.046875 L 4.03125 -19.046875 L 4.03125 -1.25 L 13.109375 -1.25 L 13.109375 0 Z M 2.703125 0 "/></g></g></g><g fill="#ffffff" fill-opacity="1"><g transform="translate(189.523892, 186.075256)"><g><path d="M 20.953125 0 L 16.359375 0 L 13.78125 -10.015625 C 13.675781 -10.367188 13.507812 -11.101562 13.28125 -12.21875 C 13.050781 -13.332031 12.921875 -14.082031 12.890625 -14.46875 C 12.835938 -14 12.707031 -13.242188 12.5 -12.203125 C 12.289062 -11.160156 12.128906 -10.421875 12.015625 -9.984375 L 9.453125 0 L 4.859375 0 L 0 -19.046875 L 3.96875 -19.046875 L 6.40625 -8.65625 C 6.832031 -6.726562 7.144531 -5.0625 7.34375 -3.65625 C 7.394531 -4.15625 7.507812 -4.921875 7.6875 -5.953125 C 7.875 -6.992188 8.050781 -7.800781 8.21875 -8.375 L 11 -19.046875 L 14.8125 -19.046875 L 17.59375 -8.375 C 17.71875 -7.894531 17.867188 -7.164062 18.046875 -6.1875 C 18.234375 -5.207031 18.375 -4.363281 18.46875 -3.65625 C 18.550781 -4.332031 18.6875 -5.175781 18.875 -6.1875 C 19.070312 -7.207031 19.25 -8.03125 19.40625 -8.65625 L 21.828125 -19.046875 L 25.796875 -19.046875 Z M 20.953125 0 "/></g></g></g><g fill="#ffffff" fill-opacity="1"><g transform="translate(218.177199, 186.075256)"><g><path d="M 14.0625 0 L 12.671875 -4.53125 L 5.734375 -4.53125 L 4.359375 0 L 0 0 L 6.71875 -19.125 L 11.65625 -19.125 L 18.40625 0 Z M 11.71875 -7.921875 C 10.4375 -12.035156 9.710938 -14.359375 9.546875 -14.890625 C 9.390625 -15.429688 9.28125 -15.859375 9.21875 -16.171875 C 8.925781 -15.054688 8.101562 -12.304688 6.75 -7.921875 Z M 11.71875 -7.921875 "/></g></g></g><g fill="#ffffff" fill-opacity="1"><g transform="translate(239.443085, 186.075256)"><g><path d="M 13.265625 -19.046875 L 17.34375 -19.046875 L 10.875 0 L 6.46875 0 L 0 -19.046875 L 4.078125 -19.046875 L 7.65625 -7.71875 C 7.863281 -7.050781 8.070312 -6.269531 8.28125 -5.375 C 8.488281 -4.488281 8.617188 -3.867188 8.671875 -3.515625 C 8.773438 -4.316406 9.101562 -5.71875 9.65625 -7.71875 Z M 13.265625 -19.046875 "/></g></g></g><g fill="#ffffff" fill-opacity="1"><g transform="translate(259.640595, 186.075256)"><g><path d="M 13.375 0 L 2.390625 0 L 2.390625 -19.046875 L 13.375 -19.046875 L 13.375 -15.734375 L 6.4375 -15.734375 L 6.4375 -11.5625 L 12.890625 -11.5625 L 12.890625 -8.25 L 6.4375 -8.25 L 6.4375 -3.34375 L 13.375 -3.34375 Z M 13.375 0 "/></g></g></g><g fill="#ffffff" fill-opacity="1"><g transform="translate(277.440774, 186.075256)"><g/></g></g><g fill="#ffffff" fill-opacity="1"><g transform="translate(287.226595, 186.075256)"><g><path d="M 7.65625 0 L 6.3125 0 L 6.3125 -17.796875 L 0.125 -17.796875 L 0.125 -19.046875 L 13.859375 -19.046875 L 13.859375 -17.796875 L 7.65625 -17.796875 Z M 7.65625 0 "/></g></g></g><g fill="#ffffff" fill-opacity="1"><g transform="translate(304.062631, 186.075256)"><g><path d="M 13.109375 0 L 2.703125 0 L 2.703125 -19.046875 L 13.109375 -19.046875 L 13.109375 -17.828125 L 4.03125 -17.828125 L 4.03125 -10.625 L 12.59375 -10.625 L 12.59375 -9.390625 L 4.03125 -9.390625 L 4.03125 -1.21875 L 13.109375 -1.21875 Z M 13.109375 0 "/></g></g></g><g fill="#ffffff" fill-opacity="1"><g transform="translate(321.641313, 186.075256)"><g><path d="M 10.828125 -18.125 C 8.441406 -18.125 6.5625 -17.359375 5.1875 -15.828125 C 3.8125 -14.304688 3.125 -12.210938 3.125 -9.546875 C 3.125 -6.828125 3.769531 -4.71875 5.0625 -3.21875 C 6.363281 -1.71875 8.21875 -0.96875 10.625 -0.96875 C 12.21875 -0.96875 13.6875 -1.171875 15.03125 -1.578125 L 15.03125 -0.40625 C 13.769531 0.0390625 12.195312 0.265625 10.3125 0.265625 C 7.632812 0.265625 5.523438 -0.597656 3.984375 -2.328125 C 2.453125 -4.054688 1.6875 -6.472656 1.6875 -9.578125 C 1.6875 -11.515625 2.050781 -13.222656 2.78125 -14.703125 C 3.519531 -16.179688 4.578125 -17.320312 5.953125 -18.125 C 7.328125 -18.925781 8.925781 -19.328125 10.75 -19.328125 C 12.613281 -19.328125 14.273438 -18.976562 15.734375 -18.28125 L 15.203125 -17.078125 C 13.816406 -17.773438 12.359375 -18.125 10.828125 -18.125 Z M 10.828125 -18.125 "/></g></g></g><g fill="#ffffff" fill-opacity="1"><g transform="translate(341.07011, 186.075256)"><g><path d="M 16.5 0 L 15.15625 0 L 15.15625 -9.375 L 4.03125 -9.375 L 4.03125 0 L 2.703125 0 L 2.703125 -19.046875 L 4.03125 -19.046875 L 4.03125 -10.59375 L 15.15625 -10.59375 L 15.15625 -19.046875 L 16.5 -19.046875 Z M 16.5 0 "/></g></g></g><g fill="#d82a27" fill-opacity="1"><g transform="translate(134.214912, 206.701382)"><g><path d="M 2.25 -3.6875 L 2.703125 -3.6875 C 3.140625 -3.6875 3.460938 -3.757812 3.671875 -3.90625 C 3.890625 -4.0625 4 -4.296875 4 -4.609375 C 4 -4.921875 3.890625 -5.144531 3.671875 -5.28125 C 3.453125 -5.414062 3.117188 -5.484375 2.671875 -5.484375 L 2.25 -5.484375 Z M 2.25 -2.546875 L 2.25 0 L 0.828125 0 L 0.828125 -6.640625 L 2.765625 -6.640625 C 3.671875 -6.640625 4.335938 -6.472656 4.765625 -6.140625 C 5.203125 -5.816406 5.421875 -5.320312 5.421875 -4.65625 C 5.421875 -4.257812 5.3125 -3.910156 5.09375 -3.609375 C 4.882812 -3.304688 4.582031 -3.066406 4.1875 -2.890625 C 5.1875 -1.398438 5.835938 -0.4375 6.140625 0 L 4.578125 0 L 2.984375 -2.546875 Z M 2.25 -2.546875 "/></g></g></g><g fill="#d82a27" fill-opacity="1"><g transform="translate(142.613752, 206.701382)"><g><path d="M 0.828125 0 L 0.828125 -6.640625 L 2.25 -6.640625 L 2.25 0 Z M 0.828125 0 "/></g></g></g><g fill="#d82a27" fill-opacity="1"><g transform="translate(147.95552, 206.701382)"><g><path d="M 6.34375 -3.375 C 6.34375 -2.289062 6.03125 -1.457031 5.40625 -0.875 C 4.78125 -0.289062 3.882812 0 2.71875 0 L 0.828125 0 L 0.828125 -6.640625 L 2.921875 -6.640625 C 4.003906 -6.640625 4.84375 -6.351562 5.4375 -5.78125 C 6.039062 -5.207031 6.34375 -4.40625 6.34375 -3.375 Z M 4.875 -3.34375 C 4.875 -4.769531 4.242188 -5.484375 2.984375 -5.484375 L 2.25 -5.484375 L 2.25 -1.15625 L 2.84375 -1.15625 C 4.195312 -1.15625 4.875 -1.882812 4.875 -3.34375 Z M 4.875 -3.34375 "/></g></g></g><g fill="#d82a27" fill-opacity="1"><g transform="translate(157.098218, 206.701382)"><g><path d="M 0.828125 0 L 0.828125 -6.640625 L 2.25 -6.640625 L 2.25 0 Z M 0.828125 0 "/></g></g></g><g fill="#d82a27" fill-opacity="1"><g transform="translate(162.439986, 206.701382)"><g><path d="M 6.71875 0 L 4.9375 0 L 2.046875 -5.015625 L 2 -5.015625 C 2.0625 -4.128906 2.09375 -3.5 2.09375 -3.125 L 2.09375 0 L 0.828125 0 L 0.828125 -6.640625 L 2.609375 -6.640625 L 5.5 -1.671875 L 5.53125 -1.671875 C 5.476562 -2.523438 5.453125 -3.132812 5.453125 -3.5 L 5.453125 -6.640625 L 6.71875 -6.640625 Z M 6.71875 0 "/></g></g></g><g fill="#d82a27" fill-opacity="1"><g transform="translate(172.258508, 206.701382)"><g><path d="M 3.359375 -3.734375 L 5.984375 -3.734375 L 5.984375 -0.28125 C 5.554688 -0.144531 5.15625 -0.0507812 4.78125 0 C 4.40625 0.0625 4.019531 0.09375 3.625 0.09375 C 2.625 0.09375 1.859375 -0.195312 1.328125 -0.78125 C 0.804688 -1.375 0.546875 -2.222656 0.546875 -3.328125 C 0.546875 -4.398438 0.847656 -5.234375 1.453125 -5.828125 C 2.066406 -6.429688 2.921875 -6.734375 4.015625 -6.734375 C 4.691406 -6.734375 5.347656 -6.597656 5.984375 -6.328125 L 5.515625 -5.203125 C 5.023438 -5.441406 4.519531 -5.5625 4 -5.5625 C 3.394531 -5.5625 2.90625 -5.351562 2.53125 -4.9375 C 2.164062 -4.53125 1.984375 -3.984375 1.984375 -3.296875 C 1.984375 -2.578125 2.128906 -2.023438 2.421875 -1.640625 C 2.722656 -1.265625 3.15625 -1.078125 3.71875 -1.078125 C 4.007812 -1.078125 4.304688 -1.109375 4.609375 -1.171875 L 4.609375 -2.5625 L 3.359375 -2.5625 Z M 3.359375 -3.734375 "/></g></g></g><g fill="#d82a27" fill-opacity="1"><g transform="translate(181.251529, 206.701382)"><g/></g></g><g fill="#d82a27" fill-opacity="1"><g transform="translate(185.931083, 206.701382)"><g><path d="M 3.390625 0 L 1.984375 0 L 1.984375 -5.46875 L 0.1875 -5.46875 L 0.1875 -6.640625 L 5.203125 -6.640625 L 5.203125 -5.46875 L 3.390625 -5.46875 Z M 3.390625 0 "/></g></g></g><g fill="#d82a27" fill-opacity="1"><g transform="translate(193.576997, 206.701382)"><g><path d="M 6.28125 0 L 4.875 0 L 4.875 -2.859375 L 2.25 -2.859375 L 2.25 0 L 0.828125 0 L 0.828125 -6.640625 L 2.25 -6.640625 L 2.25 -4.03125 L 4.875 -4.03125 L 4.875 -6.640625 L 6.28125 -6.640625 Z M 6.28125 0 "/></g></g></g><g fill="#d82a27" fill-opacity="1"><g transform="translate(202.951018, 206.701382)"><g><path d="M 4.65625 0 L 0.828125 0 L 0.828125 -6.640625 L 4.65625 -6.640625 L 4.65625 -5.484375 L 2.25 -5.484375 L 2.25 -4.03125 L 4.484375 -4.03125 L 4.484375 -2.875 L 2.25 -2.875 L 2.25 -1.15625 L 4.65625 -1.15625 Z M 4.65625 0 "/></g></g></g><g fill="#d82a27" fill-opacity="1"><g transform="translate(210.420038, 206.701382)"><g/></g></g><g fill="#d82a27" fill-opacity="1"><g transform="translate(215.099593, 206.701382)"><g><path d="M 7.296875 0 L 5.703125 0 L 4.796875 -3.484375 C 4.765625 -3.609375 4.707031 -3.863281 4.625 -4.25 C 4.539062 -4.644531 4.492188 -4.90625 4.484375 -5.03125 C 4.472656 -4.875 4.429688 -4.613281 4.359375 -4.25 C 4.285156 -3.882812 4.226562 -3.628906 4.1875 -3.484375 L 3.296875 0 L 1.6875 0 L 0 -6.640625 L 1.390625 -6.640625 L 2.234375 -3.015625 C 2.378906 -2.347656 2.488281 -1.769531 2.5625 -1.28125 C 2.570312 -1.445312 2.609375 -1.710938 2.671875 -2.078125 C 2.742188 -2.441406 2.804688 -2.722656 2.859375 -2.921875 L 3.828125 -6.640625 L 5.15625 -6.640625 L 6.125 -2.921875 C 6.164062 -2.753906 6.21875 -2.5 6.28125 -2.15625 C 6.34375 -1.8125 6.394531 -1.519531 6.4375 -1.28125 C 6.46875 -1.507812 6.515625 -1.800781 6.578125 -2.15625 C 6.640625 -2.507812 6.703125 -2.796875 6.765625 -3.015625 L 7.609375 -6.640625 L 8.984375 -6.640625 Z M 7.296875 0 "/></g></g></g><g fill="#d82a27" fill-opacity="1"><g transform="translate(226.346865, 206.701382)"><g><path d="M 4.890625 0 L 4.421875 -1.578125 L 2 -1.578125 L 1.515625 0 L 0 0 L 2.34375 -6.65625 L 4.0625 -6.65625 L 6.421875 0 Z M 4.078125 -2.765625 C 3.628906 -4.191406 3.378906 -5 3.328125 -5.1875 C 3.273438 -5.375 3.234375 -5.523438 3.203125 -5.640625 C 3.109375 -5.242188 2.820312 -4.285156 2.34375 -2.765625 Z M 4.078125 -2.765625 "/></g></g></g><g fill="#d82a27" fill-opacity="1"><g transform="translate(235.022386, 206.701382)"><g><path d="M 4.625 -6.640625 L 6.046875 -6.640625 L 3.78125 0 L 2.25 0 L 0 -6.640625 L 1.421875 -6.640625 L 2.671875 -2.6875 C 2.742188 -2.457031 2.816406 -2.1875 2.890625 -1.875 C 2.960938 -1.5625 3.003906 -1.34375 3.015625 -1.21875 C 3.054688 -1.5 3.171875 -1.988281 3.359375 -2.6875 Z M 4.625 -6.640625 "/></g></g></g><g fill="#d82a27" fill-opacity="1"><g transform="translate(243.325972, 206.701382)"><g><path d="M 4.65625 0 L 0.828125 0 L 0.828125 -6.640625 L 4.65625 -6.640625 L 4.65625 -5.484375 L 2.25 -5.484375 L 2.25 -4.03125 L 4.484375 -4.03125 L 4.484375 -2.875 L 2.25 -2.875 L 2.25 -1.15625 L 4.65625 -1.15625 Z M 4.65625 0 "/></g></g></g><g fill="#d82a27" fill-opacity="1"><g transform="translate(250.794987, 206.701382)"><g/></g></g><g fill="#d82a27" fill-opacity="1"><g transform="translate(255.474535, 206.701382)"><g><path d="M 6.859375 -3.328125 C 6.859375 -2.222656 6.582031 -1.375 6.03125 -0.78125 C 5.488281 -0.195312 4.710938 0.09375 3.703125 0.09375 C 2.679688 0.09375 1.898438 -0.195312 1.359375 -0.78125 C 0.816406 -1.375 0.546875 -2.226562 0.546875 -3.34375 C 0.546875 -4.445312 0.816406 -5.285156 1.359375 -5.859375 C 1.898438 -6.441406 2.679688 -6.734375 3.703125 -6.734375 C 4.722656 -6.734375 5.503906 -6.441406 6.046875 -5.859375 C 6.585938 -5.273438 6.859375 -4.429688 6.859375 -3.328125 Z M 2.015625 -3.328125 C 2.015625 -2.585938 2.15625 -2.03125 2.4375 -1.65625 C 2.71875 -1.28125 3.140625 -1.09375 3.703125 -1.09375 C 4.828125 -1.09375 5.390625 -1.835938 5.390625 -3.328125 C 5.390625 -4.816406 4.828125 -5.5625 3.703125 -5.5625 C 3.148438 -5.5625 2.726562 -5.375 2.4375 -5 C 2.15625 -4.625 2.015625 -4.066406 2.015625 -3.328125 Z M 2.015625 -3.328125 "/></g></g></g><g fill="#d82a27" fill-opacity="1"><g transform="translate(265.134301, 206.701382)"><g><path d="M 2.21875 0 L 0.828125 0 L 0.828125 -6.640625 L 4.640625 -6.640625 L 4.640625 -5.484375 L 2.21875 -5.484375 L 2.21875 -3.765625 L 4.46875 -3.765625 L 4.46875 -2.625 L 2.21875 -2.625 Z M 2.21875 0 "/></g></g></g><g fill="#d82a27" fill-opacity="1"><g transform="translate(272.498994, 206.701382)"><g/></g></g><g fill="#d82a27" fill-opacity="1"><g transform="translate(277.178543, 206.701382)"><g><path d="M 0.828125 0 L 0.828125 -6.640625 L 2.25 -6.640625 L 2.25 0 Z M 0.828125 0 "/></g></g></g><g fill="#d82a27" fill-opacity="1"><g transform="translate(282.520306, 206.701382)"><g><path d="M 6.71875 0 L 4.9375 0 L 2.046875 -5.015625 L 2 -5.015625 C 2.0625 -4.128906 2.09375 -3.5 2.09375 -3.125 L 2.09375 0 L 0.828125 0 L 0.828125 -6.640625 L 2.609375 -6.640625 L 5.5 -1.671875 L 5.53125 -1.671875 C 5.476562 -2.523438 5.453125 -3.132812 5.453125 -3.5 L 5.453125 -6.640625 L 6.71875 -6.640625 Z M 6.71875 0 "/></g></g></g><g fill="#d82a27" fill-opacity="1"><g transform="translate(292.338821, 206.701382)"><g><path d="M 6.71875 0 L 4.9375 0 L 2.046875 -5.015625 L 2 -5.015625 C 2.0625 -4.128906 2.09375 -3.5 2.09375 -3.125 L 2.09375 0 L 0.828125 0 L 0.828125 -6.640625 L 2.609375 -6.640625 L 5.5 -1.671875 L 5.53125 -1.671875 C 5.476562 -2.523438 5.453125 -3.132812 5.453125 -3.5 L 5.453125 -6.640625 L 6.71875 -6.640625 Z M 6.71875 0 "/></g></g></g><g fill="#d82a27" fill-opacity="1"><g transform="translate(302.157337, 206.701382)"><g><path d="M 6.859375 -3.328125 C 6.859375 -2.222656 6.582031 -1.375 6.03125 -0.78125 C 5.488281 -0.195312 4.710938 0.09375 3.703125 0.09375 C 2.679688 0.09375 1.898438 -0.195312 1.359375 -0.78125 C 0.816406 -1.375 0.546875 -2.226562 0.546875 -3.34375 C 0.546875 -4.445312 0.816406 -5.285156 1.359375 -5.859375 C 1.898438 -6.441406 2.679688 -6.734375 3.703125 -6.734375 C 4.722656 -6.734375 5.503906 -6.441406 6.046875 -5.859375 C 6.585938 -5.273438 6.859375 -4.429688 6.859375 -3.328125 Z M 2.015625 -3.328125 C 2.015625 -2.585938 2.15625 -2.03125 2.4375 -1.65625 C 2.71875 -1.28125 3.140625 -1.09375 3.703125 -1.09375 C 4.828125 -1.09375 5.390625 -1.835938 5.390625 -3.328125 C 5.390625 -4.816406 4.828125 -5.5625 3.703125 -5.5625 C 3.148438 -5.5625 2.726562 -5.375 2.4375 -5 C 2.15625 -4.625 2.015625 -4.066406 2.015625 -3.328125 Z M 2.015625 -3.328125 "/></g></g></g><g fill="#d82a27" fill-opacity="1"><g transform="translate(311.817103, 206.701382)"><g><path d="M 4.625 -6.640625 L 6.046875 -6.640625 L 3.78125 0 L 2.25 0 L 0 -6.640625 L 1.421875 -6.640625 L 2.671875 -2.6875 C 2.742188 -2.457031 2.816406 -2.1875 2.890625 -1.875 C 2.960938 -1.5625 3.003906 -1.34375 3.015625 -1.21875 C 3.054688 -1.5 3.171875 -1.988281 3.359375 -2.6875 Z M 4.625 -6.640625 "/></g></g></g><g fill="#d82a27" fill-opacity="1"><g transform="translate(320.120689, 206.701382)"><g><path d="M 4.890625 0 L 4.421875 -1.578125 L 2 -1.578125 L 1.515625 0 L 0 0 L 2.34375 -6.65625 L 4.0625 -6.65625 L 6.421875 0 Z M 4.078125 -2.765625 C 3.628906 -4.191406 3.378906 -5 3.328125 -5.1875 C 3.273438 -5.375 3.234375 -5.523438 3.203125 -5.640625 C 3.109375 -5.242188 2.820312 -4.285156 2.34375 -2.765625 Z M 4.078125 -2.765625 "/></g></g></g><g fill="#d82a27" fill-opacity="1"><g transform="translate(328.796204, 206.701382)"><g><path d="M 3.390625 0 L 1.984375 0 L 1.984375 -5.46875 L 0.1875 -5.46875 L 0.1875 -6.640625 L 5.203125 -6.640625 L 5.203125 -5.46875 L 3.390625 -5.46875 Z M 3.390625 0 "/></g></g></g><g fill="#d82a27" fill-opacity="1"><g transform="translate(336.442111, 206.701382)"><g><path d="M 0.828125 0 L 0.828125 -6.640625 L 2.25 -6.640625 L 2.25 0 Z M 0.828125 0 "/></g></g></g><g fill="#d82a27" fill-opacity="1"><g transform="translate(341.783886, 206.701382)"><g><path d="M 6.859375 -3.328125 C 6.859375 -2.222656 6.582031 -1.375 6.03125 -0.78125 C 5.488281 -0.195312 4.710938 0.09375 3.703125 0.09375 C 2.679688 0.09375 1.898438 -0.195312 1.359375 -0.78125 C 0.816406 -1.375 0.546875 -2.226562 0.546875 -3.34375 C 0.546875 -4.445312 0.816406 -5.285156 1.359375 -5.859375 C 1.898438 -6.441406 2.679688 -6.734375 3.703125 -6.734375 C 4.722656 -6.734375 5.503906 -6.441406 6.046875 -5.859375 C 6.585938 -5.273438 6.859375 -4.429688 6.859375 -3.328125 Z M 2.015625 -3.328125 C 2.015625 -2.585938 2.15625 -2.03125 2.4375 -1.65625 C 2.71875 -1.28125 3.140625 -1.09375 3.703125 -1.09375 C 4.828125 -1.09375 5.390625 -1.835938 5.390625 -3.328125 C 5.390625 -4.816406 4.828125 -5.5625 3.703125 -5.5625 C 3.148438 -5.5625 2.726562 -5.375 2.4375 -5 C 2.15625 -4.625 2.015625 -4.066406 2.015625 -3.328125 Z M 2.015625 -3.328125 "/></g></g></g><g fill="#d82a27" fill-opacity="1"><g transform="translate(351.443664, 206.701382)"><g><path d="M 6.71875 0 L 4.9375 0 L 2.046875 -5.015625 L 2 -5.015625 C 2.0625 -4.128906 2.09375 -3.5 2.09375 -3.125 L 2.09375 0 L 0.828125 0 L 0.828125 -6.640625 L 2.609375 -6.640625 L 5.5 -1.671875 L 5.53125 -1.671875 C 5.476562 -2.523438 5.453125 -3.132812 5.453125 -3.5 L 5.453125 -6.640625 L 6.71875 -6.640625 Z M 6.71875 0 "/></g></g></g></svg>