<svg xmlns="http://www.w3.org/2000/svg" xmlns:xlink="http://www.w3.org/1999/xlink" width="500" zoomAndPan="magnify" viewBox="0 0 375 374.999991" height="500" preserveAspectRatio="xMidYMid meet" version="1.0"><defs><g/><clipPath id="198f88081d"><path d="M 127.09375 80.402344 L 247.84375 80.402344 L 247.84375 228.761719 L 127.09375 228.761719 Z M 127.09375 80.402344 " clip-rule="nonzero"/></clipPath></defs><g clip-path="url(#198f88081d)"><path fill="#d82a27" d="M 127.09375 228.800781 L 144.34375 211.148438 L 144.34375 125.121094 L 127.09375 125.121094 Z M 213.34375 114.746094 L 196.09375 132.398438 L 196.09375 218.425781 L 213.34375 218.425781 Z M 247.84375 80.503906 L 230.59375 98.15625 L 230.59375 184.179688 L 247.84375 184.179688 Z M 161.59375 194.554688 L 178.84375 176.902344 L 178.84375 90.875 L 161.59375 90.875 Z M 161.59375 194.554688 " fill-opacity="1" fill-rule="evenodd"/></g><g fill="#ffffff" fill-opacity="1"><g transform="translate(11.333145, 267.070083)"><g><path d="M 21.15625 -11.96875 C 21.15625 -8.019531 20.117188 -5.035156 18.046875 -3.015625 C 15.984375 -1.003906 12.953125 0 8.953125 0 L 3.328125 0 L 3.328125 -23.484375 L 9.671875 -23.484375 C 13.410156 -23.484375 16.257812 -22.503906 18.21875 -20.546875 C 20.175781 -18.585938 21.15625 -15.726562 21.15625 -11.96875 Z M 19.375 -11.90625 C 19.375 -15.257812 18.519531 -17.785156 16.8125 -19.484375 C 15.101562 -21.179688 12.59375 -22.03125 9.28125 -22.03125 L 4.96875 -22.03125 L 4.96875 -1.453125 L 8.84375 -1.453125 C 15.863281 -1.453125 19.375 -4.9375 19.375 -11.90625 Z M 19.375 -11.90625 "/></g></g></g><g fill="#ffffff" fill-opacity="1"><g transform="translate(38.062709, 267.070083)"><g><path d="M 3.328125 0 L 3.328125 -23.484375 L 4.96875 -23.484375 L 4.96875 0 Z M 3.328125 0 "/></g></g></g><g fill="#ffffff" fill-opacity="1"><g transform="translate(49.864327, 267.070083)"><g><path d="M 12.5625 -11.84375 L 21.21875 -11.84375 L 21.21875 -1.125 C 18.945312 -0.15625 16.390625 0.328125 13.546875 0.328125 C 9.847656 0.328125 7.007812 -0.71875 5.03125 -2.8125 C 3.0625 -4.90625 2.078125 -7.867188 2.078125 -11.703125 C 2.078125 -14.085938 2.566406 -16.203125 3.546875 -18.046875 C 4.523438 -19.898438 5.925781 -21.328125 7.75 -22.328125 C 9.570312 -23.335938 11.664062 -23.84375 14.03125 -23.84375 C 16.59375 -23.84375 18.890625 -23.375 20.921875 -22.4375 L 20.265625 -20.953125 C 18.234375 -21.898438 16.125 -22.375 13.9375 -22.375 C 10.84375 -22.375 8.390625 -21.414062 6.578125 -19.5 C 4.765625 -17.59375 3.859375 -15.015625 3.859375 -11.765625 C 3.859375 -8.234375 4.71875 -5.578125 6.4375 -3.796875 C 8.164062 -2.015625 10.695312 -1.125 14.03125 -1.125 C 16.195312 -1.125 18.035156 -1.429688 19.546875 -2.046875 L 19.546875 -10.296875 L 12.5625 -10.296875 Z M 12.5625 -11.84375 "/></g></g></g><g fill="#ffffff" fill-opacity="1"><g transform="translate(77.155698, 267.070083)"><g><path d="M 3.328125 0 L 3.328125 -23.484375 L 4.96875 -23.484375 L 4.96875 0 Z M 3.328125 0 "/></g></g></g><g fill="#ffffff" fill-opacity="1"><g transform="translate(88.957314, 267.070083)"><g><path d="M 9.4375 0 L 7.78125 0 L 7.78125 -21.9375 L 0.15625 -21.9375 L 0.15625 -23.484375 L 17.078125 -23.484375 L 17.078125 -21.9375 L 9.4375 -21.9375 Z M 9.4375 0 "/></g></g></g><g fill="#ffffff" fill-opacity="1"><g transform="translate(109.699646, 267.070083)"><g><path d="M 14.625 -8.28125 L 5.09375 -8.28125 L 1.8125 0 L 0 0 L 9.4375 -23.578125 L 10.484375 -23.578125 L 19.734375 0 L 17.890625 0 Z M 5.6875 -9.765625 L 14.078125 -9.765625 L 10.890625 -18.234375 C 10.617188 -18.890625 10.296875 -19.804688 9.921875 -20.984375 C 9.628906 -19.960938 9.316406 -19.035156 8.984375 -18.203125 Z M 5.6875 -9.765625 "/></g></g></g><g fill="#ffffff" fill-opacity="1"><g transform="translate(132.946022, 267.070083)"><g><path d="M 3.328125 0 L 3.328125 -23.484375 L 4.96875 -23.484375 L 4.96875 -1.546875 L 16.15625 -1.546875 L 16.15625 0 Z M 3.328125 0 "/></g></g></g><g fill="#ffffff" fill-opacity="1"><g transform="translate(153.329668, 267.070083)"><g><path d="M 25.828125 0 L 20.15625 0 L 16.96875 -12.328125 C 16.851562 -12.773438 16.65625 -13.6875 16.375 -15.0625 C 16.09375 -16.4375 15.929688 -17.359375 15.890625 -17.828125 C 15.816406 -17.242188 15.648438 -16.3125 15.390625 -15.03125 C 15.140625 -13.757812 14.945312 -12.847656 14.8125 -12.296875 L 11.640625 0 L 5.984375 0 L 0 -23.484375 L 4.890625 -23.484375 L 7.90625 -10.65625 C 8.425781 -8.289062 8.804688 -6.242188 9.046875 -4.515625 C 9.109375 -5.117188 9.253906 -6.0625 9.484375 -7.34375 C 9.710938 -8.625 9.929688 -9.617188 10.140625 -10.328125 L 13.546875 -23.484375 L 18.265625 -23.484375 L 21.6875 -10.328125 C 21.832031 -9.734375 22.015625 -8.832031 22.234375 -7.625 C 22.460938 -6.414062 22.632812 -5.378906 22.75 -4.515625 C 22.863281 -5.347656 23.035156 -6.382812 23.265625 -7.625 C 23.503906 -8.875 23.71875 -9.882812 23.90625 -10.65625 L 26.90625 -23.484375 L 31.796875 -23.484375 Z M 25.828125 0 "/></g></g></g><g fill="#ffffff" fill-opacity="1"><g transform="translate(188.630765, 267.070083)"><g><path d="M 17.328125 0 L 15.625 -5.59375 L 7.0625 -5.59375 L 5.359375 0 L 0 0 L 8.28125 -23.578125 L 14.375 -23.578125 L 22.6875 0 Z M 14.4375 -9.765625 C 12.863281 -14.828125 11.976562 -17.691406 11.78125 -18.359375 C 11.582031 -19.023438 11.441406 -19.550781 11.359375 -19.9375 C 11.003906 -18.5625 9.988281 -15.171875 8.3125 -9.765625 Z M 14.4375 -9.765625 "/></g></g></g><g fill="#ffffff" fill-opacity="1"><g transform="translate(214.83063, 267.070083)"><g><path d="M 16.34375 -23.484375 L 21.375 -23.484375 L 13.390625 0 L 7.96875 0 L 0 -23.484375 L 5.03125 -23.484375 L 9.4375 -9.5 C 9.6875 -8.675781 9.941406 -7.71875 10.203125 -6.625 C 10.460938 -5.53125 10.628906 -4.769531 10.703125 -4.34375 C 10.816406 -5.320312 11.21875 -7.039062 11.90625 -9.5 Z M 16.34375 -23.484375 "/></g></g></g><g fill="#ffffff" fill-opacity="1"><g transform="translate(239.714264, 267.070083)"><g><path d="M 16.484375 0 L 2.953125 0 L 2.953125 -23.484375 L 16.484375 -23.484375 L 16.484375 -19.40625 L 7.9375 -19.40625 L 7.9375 -14.25 L 15.890625 -14.25 L 15.890625 -10.171875 L 7.9375 -10.171875 L 7.9375 -4.109375 L 16.484375 -4.109375 Z M 16.484375 0 "/></g></g></g><g fill="#ffffff" fill-opacity="1"><g transform="translate(261.644411, 267.070083)"><g/></g></g><g fill="#d82a27" fill-opacity="1"><g transform="translate(273.694599, 267.070083)"><g><path d="M 9.4375 0 L 7.78125 0 L 7.78125 -21.9375 L 0.15625 -21.9375 L 0.15625 -23.484375 L 17.078125 -23.484375 L 17.078125 -21.9375 L 9.4375 -21.9375 Z M 9.4375 0 "/></g></g></g><g fill="#d82a27" fill-opacity="1"><g transform="translate(294.436934, 267.070083)"><g><path d="M 16.15625 0 L 3.328125 0 L 3.328125 -23.484375 L 16.15625 -23.484375 L 16.15625 -21.96875 L 4.96875 -21.96875 L 4.96875 -13.09375 L 15.53125 -13.09375 L 15.53125 -11.578125 L 4.96875 -11.578125 L 4.96875 -1.515625 L 16.15625 -1.515625 Z M 16.15625 0 "/></g></g></g><g fill="#d82a27" fill-opacity="1"><g transform="translate(316.094207, 267.070083)"><g><path d="M 13.34375 -22.34375 C 10.394531 -22.34375 8.078125 -21.398438 6.390625 -19.515625 C 4.703125 -17.628906 3.859375 -15.046875 3.859375 -11.765625 C 3.859375 -8.421875 4.65625 -5.820312 6.25 -3.96875 C 7.84375 -2.113281 10.125 -1.1875 13.09375 -1.1875 C 15.0625 -1.1875 16.867188 -1.4375 18.515625 -1.9375 L 18.515625 -0.5 C 16.960938 0.0507812 15.023438 0.328125 12.703125 0.328125 C 9.398438 0.328125 6.800781 -0.738281 4.90625 -2.875 C 3.019531 -5.007812 2.078125 -7.984375 2.078125 -11.796875 C 2.078125 -14.191406 2.523438 -16.296875 3.421875 -18.109375 C 4.328125 -19.929688 5.628906 -21.335938 7.328125 -22.328125 C 9.023438 -23.316406 11 -23.8125 13.25 -23.8125 C 15.539062 -23.8125 17.59375 -23.382812 19.40625 -22.53125 L 18.734375 -21.046875 C 17.023438 -21.910156 15.226562 -22.34375 13.34375 -22.34375 Z M 13.34375 -22.34375 "/></g></g></g><g fill="#d82a27" fill-opacity="1"><g transform="translate(340.030802, 267.070083)"><g><path d="M 20.328125 0 L 18.671875 0 L 18.671875 -11.546875 L 4.96875 -11.546875 L 4.96875 0 L 3.328125 0 L 3.328125 -23.484375 L 4.96875 -23.484375 L 4.96875 -13.0625 L 18.671875 -13.0625 L 18.671875 -23.484375 L 20.328125 -23.484375 Z M 20.328125 0 "/></g></g></g><g fill="#d82a27" fill-opacity="1"><g transform="translate(54.794625, 292.180238)"><g><path d="M 2.640625 -4.359375 L 3.1875 -4.359375 C 3.707031 -4.359375 4.09375 -4.441406 4.34375 -4.609375 C 4.59375 -4.785156 4.71875 -5.0625 4.71875 -5.4375 C 4.71875 -5.8125 4.585938 -6.078125 4.328125 -6.234375 C 4.078125 -6.390625 3.6875 -6.46875 3.15625 -6.46875 L 2.640625 -6.46875 Z M 2.640625 -3 L 2.640625 0 L 0.984375 0 L 0.984375 -7.828125 L 3.265625 -7.828125 C 4.328125 -7.828125 5.113281 -7.632812 5.625 -7.25 C 6.132812 -6.863281 6.390625 -6.273438 6.390625 -5.484375 C 6.390625 -5.023438 6.265625 -4.613281 6.015625 -4.25 C 5.765625 -3.894531 5.40625 -3.613281 4.9375 -3.40625 C 6.113281 -1.644531 6.878906 -0.507812 7.234375 0 L 5.40625 0 L 3.53125 -3 Z M 2.640625 -3 "/></g></g></g><g fill="#d82a27" fill-opacity="1"><g transform="translate(64.711613, 292.180238)"><g><path d="M 0.984375 0 L 0.984375 -7.828125 L 2.640625 -7.828125 L 2.640625 0 Z M 0.984375 0 "/></g></g></g><g fill="#d82a27" fill-opacity="1"><g transform="translate(71.018942, 292.180238)"><g><path d="M 7.484375 -3.984375 C 7.484375 -2.703125 7.113281 -1.71875 6.375 -1.03125 C 5.644531 -0.34375 4.585938 0 3.203125 0 L 0.984375 0 L 0.984375 -7.828125 L 3.4375 -7.828125 C 4.71875 -7.828125 5.710938 -7.488281 6.421875 -6.8125 C 7.128906 -6.144531 7.484375 -5.203125 7.484375 -3.984375 Z M 5.75 -3.953125 C 5.75 -5.628906 5.007812 -6.46875 3.53125 -6.46875 L 2.640625 -6.46875 L 2.640625 -1.375 L 3.359375 -1.375 C 4.953125 -1.375 5.75 -2.234375 5.75 -3.953125 Z M 5.75 -3.953125 "/></g></g></g><g fill="#d82a27" fill-opacity="1"><g transform="translate(81.814245, 292.180238)"><g><path d="M 0.984375 0 L 0.984375 -7.828125 L 2.640625 -7.828125 L 2.640625 0 Z M 0.984375 0 "/></g></g></g><g fill="#d82a27" fill-opacity="1"><g transform="translate(88.121574, 292.180238)"><g><path d="M 7.9375 0 L 5.828125 0 L 2.421875 -5.921875 L 2.375 -5.921875 C 2.4375 -4.878906 2.46875 -4.132812 2.46875 -3.6875 L 2.46875 0 L 0.984375 0 L 0.984375 -7.828125 L 3.078125 -7.828125 L 6.484375 -1.96875 L 6.515625 -1.96875 C 6.460938 -2.976562 6.4375 -3.695312 6.4375 -4.125 L 6.4375 -7.828125 L 7.9375 -7.828125 Z M 7.9375 0 "/></g></g></g><g fill="#d82a27" fill-opacity="1"><g transform="translate(99.71486, 292.180238)"><g><path d="M 3.953125 -4.390625 L 7.0625 -4.390625 L 7.0625 -0.34375 C 6.5625 -0.175781 6.085938 -0.0625 5.640625 0 C 5.191406 0.0703125 4.738281 0.109375 4.28125 0.109375 C 3.09375 0.109375 2.1875 -0.234375 1.5625 -0.921875 C 0.945312 -1.617188 0.640625 -2.617188 0.640625 -3.921875 C 0.640625 -5.191406 1 -6.175781 1.71875 -6.875 C 2.445312 -7.582031 3.453125 -7.9375 4.734375 -7.9375 C 5.535156 -7.9375 6.304688 -7.773438 7.046875 -7.453125 L 6.5 -6.125 C 5.925781 -6.414062 5.332031 -6.5625 4.71875 -6.5625 C 4 -6.5625 3.421875 -6.316406 2.984375 -5.828125 C 2.554688 -5.347656 2.34375 -4.703125 2.34375 -3.890625 C 2.34375 -3.046875 2.515625 -2.398438 2.859375 -1.953125 C 3.210938 -1.503906 3.722656 -1.28125 4.390625 -1.28125 C 4.734375 -1.28125 5.082031 -1.3125 5.4375 -1.375 L 5.4375 -3.015625 L 3.953125 -3.015625 Z M 3.953125 -4.390625 "/></g></g></g><g fill="#d82a27" fill-opacity="1"><g transform="translate(110.333431, 292.180238)"><g/></g></g><g fill="#d82a27" fill-opacity="1"><g transform="translate(115.858847, 292.180238)"><g><path d="M 4 0 L 2.34375 0 L 2.34375 -6.453125 L 0.21875 -6.453125 L 0.21875 -7.828125 L 6.125 -7.828125 L 6.125 -6.453125 L 4 -6.453125 Z M 4 0 "/></g></g></g><g fill="#d82a27" fill-opacity="1"><g transform="translate(124.886811, 292.180238)"><g><path d="M 7.40625 0 L 5.75 0 L 5.75 -3.375 L 2.640625 -3.375 L 2.640625 0 L 0.984375 0 L 0.984375 -7.828125 L 2.640625 -7.828125 L 2.640625 -4.765625 L 5.75 -4.765625 L 5.75 -7.828125 L 7.40625 -7.828125 Z M 7.40625 0 "/></g></g></g><g fill="#d82a27" fill-opacity="1"><g transform="translate(135.955251, 292.180238)"><g><path d="M 5.5 0 L 0.984375 0 L 0.984375 -7.828125 L 5.5 -7.828125 L 5.5 -6.46875 L 2.640625 -6.46875 L 2.640625 -4.75 L 5.296875 -4.75 L 5.296875 -3.390625 L 2.640625 -3.390625 L 2.640625 -1.375 L 5.5 -1.375 Z M 5.5 0 "/></g></g></g><g fill="#d82a27" fill-opacity="1"><g transform="translate(144.774347, 292.180238)"><g/></g></g><g fill="#d82a27" fill-opacity="1"><g transform="translate(150.299763, 292.180238)"><g><path d="M 8.609375 0 L 6.71875 0 L 5.65625 -4.109375 C 5.625 -4.253906 5.554688 -4.554688 5.453125 -5.015625 C 5.359375 -5.472656 5.304688 -5.78125 5.296875 -5.9375 C 5.273438 -5.75 5.21875 -5.441406 5.125 -5.015625 C 5.039062 -4.585938 4.976562 -4.285156 4.9375 -4.109375 L 3.890625 0 L 2 0 L 0 -7.828125 L 1.640625 -7.828125 L 2.640625 -3.5625 C 2.804688 -2.769531 2.929688 -2.082031 3.015625 -1.5 C 3.035156 -1.707031 3.082031 -2.023438 3.15625 -2.453125 C 3.238281 -2.878906 3.3125 -3.207031 3.375 -3.4375 L 4.515625 -7.828125 L 6.09375 -7.828125 L 7.234375 -3.4375 C 7.285156 -3.25 7.347656 -2.953125 7.421875 -2.546875 C 7.492188 -2.140625 7.550781 -1.789062 7.59375 -1.5 C 7.625 -1.78125 7.675781 -2.128906 7.75 -2.546875 C 7.832031 -2.960938 7.90625 -3.300781 7.96875 -3.5625 L 8.96875 -7.828125 L 10.609375 -7.828125 Z M 8.609375 0 "/></g></g></g><g fill="#d82a27" fill-opacity="1"><g transform="translate(163.580056, 292.180238)"><g><path d="M 5.78125 0 L 5.21875 -1.859375 L 2.359375 -1.859375 L 1.78125 0 L 0 0 L 2.765625 -7.859375 L 4.796875 -7.859375 L 7.5625 0 Z M 4.8125 -3.25 C 4.289062 -4.945312 3.992188 -5.90625 3.921875 -6.125 C 3.859375 -6.34375 3.8125 -6.515625 3.78125 -6.640625 C 3.664062 -6.191406 3.332031 -5.0625 2.78125 -3.25 Z M 4.8125 -3.25 "/></g></g></g><g fill="#d82a27" fill-opacity="1"><g transform="translate(173.823737, 292.180238)"><g><path d="M 5.453125 -7.828125 L 7.125 -7.828125 L 4.46875 0 L 2.65625 0 L 0 -7.828125 L 1.671875 -7.828125 L 3.15625 -3.171875 C 3.226562 -2.898438 3.304688 -2.578125 3.390625 -2.203125 C 3.484375 -1.835938 3.539062 -1.585938 3.5625 -1.453125 C 3.601562 -1.773438 3.738281 -2.347656 3.96875 -3.171875 Z M 5.453125 -7.828125 "/></g></g></g><g fill="#d82a27" fill-opacity="1"><g transform="translate(183.628253, 292.180238)"><g><path d="M 5.5 0 L 0.984375 0 L 0.984375 -7.828125 L 5.5 -7.828125 L 5.5 -6.46875 L 2.640625 -6.46875 L 2.640625 -4.75 L 5.296875 -4.75 L 5.296875 -3.390625 L 2.640625 -3.390625 L 2.640625 -1.375 L 5.5 -1.375 Z M 5.5 0 "/></g></g></g><g fill="#d82a27" fill-opacity="1"><g transform="translate(192.447343, 292.180238)"><g/></g></g><g fill="#d82a27" fill-opacity="1"><g transform="translate(197.972751, 292.180238)"><g><path d="M 8.09375 -3.921875 C 8.09375 -2.628906 7.769531 -1.632812 7.125 -0.9375 C 6.488281 -0.238281 5.566406 0.109375 4.359375 0.109375 C 3.160156 0.109375 2.238281 -0.238281 1.59375 -0.9375 C 0.957031 -1.632812 0.640625 -2.632812 0.640625 -3.9375 C 0.640625 -5.238281 0.960938 -6.234375 1.609375 -6.921875 C 2.253906 -7.609375 3.175781 -7.953125 4.375 -7.953125 C 5.582031 -7.953125 6.503906 -7.601562 7.140625 -6.90625 C 7.773438 -6.21875 8.09375 -5.222656 8.09375 -3.921875 Z M 2.375 -3.921875 C 2.375 -3.046875 2.539062 -2.382812 2.875 -1.9375 C 3.207031 -1.5 3.703125 -1.28125 4.359375 -1.28125 C 5.691406 -1.28125 6.359375 -2.160156 6.359375 -3.921875 C 6.359375 -5.691406 5.695312 -6.578125 4.375 -6.578125 C 3.71875 -6.578125 3.21875 -6.351562 2.875 -5.90625 C 2.539062 -5.457031 2.375 -4.796875 2.375 -3.921875 Z M 2.375 -3.921875 "/></g></g></g><g fill="#d82a27" fill-opacity="1"><g transform="translate(209.378586, 292.180238)"><g><path d="M 2.625 0 L 0.984375 0 L 0.984375 -7.828125 L 5.46875 -7.828125 L 5.46875 -6.46875 L 2.625 -6.46875 L 2.625 -4.453125 L 5.28125 -4.453125 L 5.28125 -3.09375 L 2.625 -3.09375 Z M 2.625 0 "/></g></g></g><g fill="#d82a27" fill-opacity="1"><g transform="translate(218.074497, 292.180238)"><g/></g></g><g fill="#d82a27" fill-opacity="1"><g transform="translate(223.599906, 292.180238)"><g><path d="M 0.984375 0 L 0.984375 -7.828125 L 2.640625 -7.828125 L 2.640625 0 Z M 0.984375 0 "/></g></g></g><g fill="#d82a27" fill-opacity="1"><g transform="translate(229.907229, 292.180238)"><g><path d="M 7.9375 0 L 5.828125 0 L 2.421875 -5.921875 L 2.375 -5.921875 C 2.4375 -4.878906 2.46875 -4.132812 2.46875 -3.6875 L 2.46875 0 L 0.984375 0 L 0.984375 -7.828125 L 3.078125 -7.828125 L 6.484375 -1.96875 L 6.515625 -1.96875 C 6.460938 -2.976562 6.4375 -3.695312 6.4375 -4.125 L 6.4375 -7.828125 L 7.9375 -7.828125 Z M 7.9375 0 "/></g></g></g><g fill="#d82a27" fill-opacity="1"><g transform="translate(241.500508, 292.180238)"><g><path d="M 7.9375 0 L 5.828125 0 L 2.421875 -5.921875 L 2.375 -5.921875 C 2.4375 -4.878906 2.46875 -4.132812 2.46875 -3.6875 L 2.46875 0 L 0.984375 0 L 0.984375 -7.828125 L 3.078125 -7.828125 L 6.484375 -1.96875 L 6.515625 -1.96875 C 6.460938 -2.976562 6.4375 -3.695312 6.4375 -4.125 L 6.4375 -7.828125 L 7.9375 -7.828125 Z M 7.9375 0 "/></g></g></g><g fill="#d82a27" fill-opacity="1"><g transform="translate(253.093788, 292.180238)"><g><path d="M 8.09375 -3.921875 C 8.09375 -2.628906 7.769531 -1.632812 7.125 -0.9375 C 6.488281 -0.238281 5.566406 0.109375 4.359375 0.109375 C 3.160156 0.109375 2.238281 -0.238281 1.59375 -0.9375 C 0.957031 -1.632812 0.640625 -2.632812 0.640625 -3.9375 C 0.640625 -5.238281 0.960938 -6.234375 1.609375 -6.921875 C 2.253906 -7.609375 3.175781 -7.953125 4.375 -7.953125 C 5.582031 -7.953125 6.503906 -7.601562 7.140625 -6.90625 C 7.773438 -6.21875 8.09375 -5.222656 8.09375 -3.921875 Z M 2.375 -3.921875 C 2.375 -3.046875 2.539062 -2.382812 2.875 -1.9375 C 3.207031 -1.5 3.703125 -1.28125 4.359375 -1.28125 C 5.691406 -1.28125 6.359375 -2.160156 6.359375 -3.921875 C 6.359375 -5.691406 5.695312 -6.578125 4.375 -6.578125 C 3.71875 -6.578125 3.21875 -6.351562 2.875 -5.90625 C 2.539062 -5.457031 2.375 -4.796875 2.375 -3.921875 Z M 2.375 -3.921875 "/></g></g></g><g fill="#d82a27" fill-opacity="1"><g transform="translate(264.499622, 292.180238)"><g><path d="M 5.453125 -7.828125 L 7.125 -7.828125 L 4.46875 0 L 2.65625 0 L 0 -7.828125 L 1.671875 -7.828125 L 3.15625 -3.171875 C 3.226562 -2.898438 3.304688 -2.578125 3.390625 -2.203125 C 3.484375 -1.835938 3.539062 -1.585938 3.5625 -1.453125 C 3.601562 -1.773438 3.738281 -2.347656 3.96875 -3.171875 Z M 5.453125 -7.828125 "/></g></g></g><g fill="#d82a27" fill-opacity="1"><g transform="translate(274.304138, 292.180238)"><g><path d="M 5.78125 0 L 5.21875 -1.859375 L 2.359375 -1.859375 L 1.78125 0 L 0 0 L 2.765625 -7.859375 L 4.796875 -7.859375 L 7.5625 0 Z M 4.8125 -3.25 C 4.289062 -4.945312 3.992188 -5.90625 3.921875 -6.125 C 3.859375 -6.34375 3.8125 -6.515625 3.78125 -6.640625 C 3.664062 -6.191406 3.332031 -5.0625 2.78125 -3.25 Z M 4.8125 -3.25 "/></g></g></g><g fill="#d82a27" fill-opacity="1"><g transform="translate(284.547811, 292.180238)"><g><path d="M 4 0 L 2.34375 0 L 2.34375 -6.453125 L 0.21875 -6.453125 L 0.21875 -7.828125 L 6.125 -7.828125 L 6.125 -6.453125 L 4 -6.453125 Z M 4 0 "/></g></g></g><g fill="#d82a27" fill-opacity="1"><g transform="translate(293.575768, 292.180238)"><g><path d="M 0.984375 0 L 0.984375 -7.828125 L 2.640625 -7.828125 L 2.640625 0 Z M 0.984375 0 "/></g></g></g><g fill="#d82a27" fill-opacity="1"><g transform="translate(299.883105, 292.180238)"><g><path d="M 8.09375 -3.921875 C 8.09375 -2.628906 7.769531 -1.632812 7.125 -0.9375 C 6.488281 -0.238281 5.566406 0.109375 4.359375 0.109375 C 3.160156 0.109375 2.238281 -0.238281 1.59375 -0.9375 C 0.957031 -1.632812 0.640625 -2.632812 0.640625 -3.9375 C 0.640625 -5.238281 0.960938 -6.234375 1.609375 -6.921875 C 2.253906 -7.609375 3.175781 -7.953125 4.375 -7.953125 C 5.582031 -7.953125 6.503906 -7.601562 7.140625 -6.90625 C 7.773438 -6.21875 8.09375 -5.222656 8.09375 -3.921875 Z M 2.375 -3.921875 C 2.375 -3.046875 2.539062 -2.382812 2.875 -1.9375 C 3.207031 -1.5 3.703125 -1.28125 4.359375 -1.28125 C 5.691406 -1.28125 6.359375 -2.160156 6.359375 -3.921875 C 6.359375 -5.691406 5.695312 -6.578125 4.375 -6.578125 C 3.71875 -6.578125 3.21875 -6.351562 2.875 -5.90625 C 2.539062 -5.457031 2.375 -4.796875 2.375 -3.921875 Z M 2.375 -3.921875 "/></g></g></g><g fill="#d82a27" fill-opacity="1"><g transform="translate(311.288953, 292.180238)"><g><path d="M 7.9375 0 L 5.828125 0 L 2.421875 -5.921875 L 2.375 -5.921875 C 2.4375 -4.878906 2.46875 -4.132812 2.46875 -3.6875 L 2.46875 0 L 0.984375 0 L 0.984375 -7.828125 L 3.078125 -7.828125 L 6.484375 -1.96875 L 6.515625 -1.96875 C 6.460938 -2.976562 6.4375 -3.695312 6.4375 -4.125 L 6.4375 -7.828125 L 7.9375 -7.828125 Z M 7.9375 0 "/></g></g></g></svg>